<svg width="18" height="15" viewBox="0 0 18 15" fill="none" xmlns="http://www.w3.org/2000/svg">
<path d="M2.29009 8.22024L8.22755 13.7979C8.38432 13.9451 8.4627 14.0188 8.54902 14.0538C8.66965 14.1028 8.80462 14.1028 8.92525 14.0538C9.01157 14.0188 9.08995 13.9451 9.24672 13.7979L15.1842 8.22024C16.8547 6.65093 17.0576 4.06848 15.6526 2.25756L15.3884 1.91705C13.7076 -0.249314 10.3338 0.114004 9.15274 2.58856C8.98591 2.9381 8.48835 2.9381 8.32153 2.58856C7.14049 0.114004 3.76668 -0.249314 2.08587 1.91705L1.82169 2.25756C0.416667 4.06848 0.619536 6.65094 2.29009 8.22024Z" stroke="#7BA3F2" stroke-width="0.85399"/>
</svg>
