<svg width="21" height="21" viewBox="0 0 21 21" fill="none" xmlns="http://www.w3.org/2000/svg">
<path d="M4.29009 12.2202L10.2275 17.7979C10.3843 17.9451 10.4627 18.0188 10.549 18.0538C10.6696 18.1028 10.8046 18.1028 10.9252 18.0538C11.0116 18.0188 11.09 17.9451 11.2467 17.7979L17.1842 12.2202C18.8547 10.6509 19.0576 8.06848 17.6526 6.25756L17.3884 5.91705C15.7076 3.75069 12.3338 4.114 11.1527 6.58856C10.9859 6.9381 10.4884 6.9381 10.3215 6.58856C9.14049 4.114 5.76668 3.75069 4.08587 5.91705L3.82169 6.25756C2.41667 8.06848 2.61954 10.6509 4.29009 12.2202Z" stroke="#7BA3F2" stroke-width="0.85399"/>
</svg>
