<svg width="35" height="38" viewBox="0 0 35 38" fill="none" xmlns="http://www.w3.org/2000/svg">
<g filter="url(#filter0_d_1_475)">
<path d="M7.57662 18.823C7.57662 16.8905 7.57662 15.9243 7.96726 15.0749C8.35791 14.2256 9.09155 13.5967 10.5588 12.3391L11.9821 11.1191C14.6342 8.84587 15.9603 7.70926 17.5398 7.70926C19.1194 7.70926 20.4454 8.84587 23.0975 11.1191L24.5208 12.3391C25.9881 13.5967 26.7218 14.2256 27.1124 15.0749C27.503 15.9243 27.503 16.8905 27.503 18.823V24.8585C27.503 27.5423 27.503 28.8842 26.6693 29.718C25.8355 30.5517 24.4936 30.5517 21.8098 30.5517H13.2699C10.5861 30.5517 9.24414 30.5517 8.41038 29.718C7.57662 28.8842 7.57662 27.5423 7.57662 24.8585V18.823Z" stroke="#7BA3F2" stroke-width="0.85399"/>
<path d="M21.0981 30.5517V22.8658C21.0981 22.3942 20.7158 22.0118 20.2441 22.0118H14.8355C14.3639 22.0118 13.9815 22.3942 13.9815 22.8658V30.5517" stroke="#7BA3F2" stroke-width="0.85399" stroke-linecap="round" stroke-linejoin="round"/>
</g>
<defs>
<filter id="filter0_d_1_475" x="-2.95592" y="0.662109" width="40.9915" height="40.9915" filterUnits="userSpaceOnUse" color-interpolation-filters="sRGB">
<feFlood flood-opacity="0" result="BackgroundImageFix"/>
<feColorMatrix in="SourceAlpha" type="matrix" values="0 0 0 0 0 0 0 0 0 0 0 0 0 0 0 0 0 0 127 0" result="hardAlpha"/>
<feOffset dy="3.41596"/>
<feGaussianBlur stdDeviation="1.70798"/>
<feComposite in2="hardAlpha" operator="out"/>
<feColorMatrix type="matrix" values="0 0 0 0 0.482353 0 0 0 0 0.639216 0 0 0 0 0.94902 0 0 0 0.25 0"/>
<feBlend mode="normal" in2="BackgroundImageFix" result="effect1_dropShadow_1_475"/>
<feBlend mode="normal" in="SourceGraphic" in2="effect1_dropShadow_1_475" result="shape"/>
</filter>
</defs>
</svg>
