<svg width="35" height="37" viewBox="0 0 35 37" fill="none" xmlns="http://www.w3.org/2000/svg">
<g filter="url(#filter0_d_1_276)">
<path fill-rule="evenodd" clip-rule="evenodd" d="M7.80941 14.5078C7.41876 15.3572 7.41876 16.3234 7.41876 18.256V24.2914C7.41876 26.9752 7.41876 28.3171 8.25252 29.1509C9.07141 29.9698 10.3805 29.9844 12.9697 29.9846V22.8681C12.9697 21.6104 13.9893 20.5908 15.247 20.5908H19.517C20.7747 20.5908 21.7943 21.6104 21.7943 22.8681V29.9846C24.3835 29.9844 25.6925 29.9698 26.5114 29.1509C27.3452 28.3171 27.3452 26.9752 27.3452 24.2914V18.256C27.3452 16.3234 27.3452 15.3572 26.9545 14.5078C26.5639 13.6585 25.8303 13.0296 24.363 11.772L22.9397 10.552C20.2876 8.27878 18.9615 7.14217 17.382 7.14217C15.8024 7.14217 14.4764 8.27878 11.8243 10.552L10.401 11.772C8.93369 13.0296 8.20005 13.6585 7.80941 14.5078ZM20.0863 29.9846V22.8681C20.0863 22.5537 19.8314 22.2988 19.517 22.2988H15.247C14.9326 22.2988 14.6777 22.5537 14.6777 22.8681V29.9846H20.0863Z" fill="#7BA3F2"/>
</g>
<defs>
<filter id="filter0_d_1_276" x="-3.11377" y="0.0950928" width="40.9915" height="40.9915" filterUnits="userSpaceOnUse" color-interpolation-filters="sRGB">
<feFlood flood-opacity="0" result="BackgroundImageFix"/>
<feColorMatrix in="SourceAlpha" type="matrix" values="0 0 0 0 0 0 0 0 0 0 0 0 0 0 0 0 0 0 127 0" result="hardAlpha"/>
<feOffset dy="3.41596"/>
<feGaussianBlur stdDeviation="1.70798"/>
<feComposite in2="hardAlpha" operator="out"/>
<feColorMatrix type="matrix" values="0 0 0 0 0.482353 0 0 0 0 0.639216 0 0 0 0 0.94902 0 0 0 0.25 0"/>
<feBlend mode="normal" in2="BackgroundImageFix" result="effect1_dropShadow_1_276"/>
<feBlend mode="normal" in="SourceGraphic" in2="effect1_dropShadow_1_276" result="shape"/>
</filter>
</defs>
</svg>
